<?xml version="1.0" standalone="no"?><!DOCTYPE svg PUBLIC "-//W3C//DTD SVG 1.1//EN" "http://www.w3.org/Graphics/SVG/1.1/DTD/svg11.dtd"><svg t="1706609348029" class="icon" viewBox="0 0 1024 1024" version="1.1" xmlns="http://www.w3.org/2000/svg" p-id="24774" xmlns:xlink="http://www.w3.org/1999/xlink" width="200" height="200"><path d="M493.9 381.4h-17.3v204.1h17.3c25.2 0 44.1-7.4 56.8-22.2 12.6-14.8 18.9-41.2 18.9-79s-6.3-64.4-18.9-79.8c-12.6-15.4-31.5-23.1-56.8-23.1z m20-315.2c-239.1 0-433 193.9-433 433s193.9 433 433 433 433-193.9 433-433-193.9-433-433-433zM385.2 490.4c-14.7 14.3-35.2 21.5-61.5 21.5H278v102.8h-36.3V352.3h82c26.3 0 46.8 7.2 61.5 21.5 14.7 14.3 22.1 33.8 22.1 58.3-0.1 24.5-7.4 43.9-22.1 58.3z m191.5 94.3c-20.5 19.9-48.1 29.9-82.8 29.9h-53.6V352.3h53.6c38.9 0 67.5 10.2 85.9 30.7 18.4 20.5 27.6 54.2 27.6 101.3 0.1 47-10.2 80.5-30.7 100.4z m232.6-203.3H680v85.9h97.7v29.2H680v118.1h-36.3V352.3h165.5v29.1z m-452.5 10.8c-9.5-7.1-23.6-10.7-42.6-10.7H278v101.3h36.3c18.9 0 33.1-3.6 42.6-10.7s14.2-20.4 14.2-39.9c-0.1-19.6-4.9-32.9-14.3-40z" fill="#00A99D" p-id="24775"></path></svg>