<?xml version="1.0" standalone="no"?><!DOCTYPE svg PUBLIC "-//W3C//DTD SVG 1.1//EN" "http://www.w3.org/Graphics/SVG/1.1/DTD/svg11.dtd"><svg t="1706608788588" class="icon" viewBox="0 0 1024 1024" version="1.1" xmlns="http://www.w3.org/2000/svg" p-id="5237" xmlns:xlink="http://www.w3.org/1999/xlink" width="200" height="200"><path d="M1023.910943 511.999898c5.11911 317.794367-194.116663 516.825376-511.91103 511.911029-317.794367 4.914346-516.825376-194.116663-511.91103-511.911029C-4.825463 194.20553 194.205546-4.825478 511.999913 0.088868c317.794367-4.914346 516.825376 194.116663 511.91103 511.91103z" fill="#8C50FF" p-id="5238"></path><path d="M1022.477592 566.671996C1006.915497 340.40732 852.318366 201.16752 614.382119 204.85328c-254.112635-4.095288-413.624112 155.416189-409.528824 409.528824-3.890524 237.936247 135.554041 392.533378 361.613952 408.095473 268.036615-16.381153 439.629192-187.97373 456.010345-455.805581z" fill="#8C43FF" p-id="5239"></path><path d="M1015.515602 629.944199C985.824762 491.523456 876.480566 407.160519 716.764325 409.617692c-190.635668-3.071466-310.218084 116.51095-307.146618 307.146618-2.457173 159.716241 81.905765 269.060437 220.121743 298.751277 211.112109-34.400421 351.375731-174.664043 385.776152-385.571388z" fill="#8639FF" p-id="5240"></path><path d="M997.701098 705.707031C964.734028 646.734881 902.076118 613.153517 819.146531 614.382104c-127.1587-2.047644-206.812056 77.605712-204.764412 204.764412-1.433351 82.929587 32.352777 145.587497 91.120163 178.554567a431.233852 431.233852 0 0 0 292.198816-291.994052z" fill="#8233FF" p-id="5241"></path><path d="M778.193649 808.908295a30.714662 30.714662 0 0 1-21.705028-9.009634L522.033369 565.443409a30.714662 30.714662 0 0 1 43.410056-43.410055l234.455251 234.455251A30.714662 30.714662 0 0 1 778.193649 808.908295z" fill="#FFFFFF" p-id="5242"></path><path d="M281.844714 255.430089l158.487655 53.853041 134.12069-100.129798a20.476441 20.476441 0 0 1 33.376599 16.995447l-2.047644 167.497289 136.782627 96.648802a20.476441 20.476441 0 0 1-5.938168 36.857594l-159.921006 49.757752L526.947715 737.240751a20.476441 20.476441 0 0 1-36.857594 5.938168l-96.648802-136.782627-167.497289 2.047644a20.476441 20.476441 0 0 1-16.995447-33.3766l100.129798-134.120689-53.853041-158.487655a20.476441 20.476441 0 0 1 26.619374-27.028903z" fill="#CEC0FF" p-id="5243"></path></svg>