<?xml version="1.0" standalone="no"?><!DOCTYPE svg PUBLIC "-//W3C//DTD SVG 1.1//EN" "http://www.w3.org/Graphics/SVG/1.1/DTD/svg11.dtd"><svg t="1706692081026" class="icon" viewBox="0 0 1024 1024" version="1.1" xmlns="http://www.w3.org/2000/svg" p-id="8929" xmlns:xlink="http://www.w3.org/1999/xlink" width="200" height="200"><path d="M129.5 586.4c-19.2-19.2-31-45.6-31-74.8 0-58.3 47.5-105.8 105.8-105.8h360.1c11.4 0 20.6 9.2 20.6 20.6 0 11.4-9.2 20.6-20.6 20.6H204.3c-35.6 0-64.5 29-64.5 64.5 0 35.6 29 64.5 64.5 64.5h615.2c35.6 0 64.5-29 64.5-64.5 0-35.6-29-64.5-64.5-64.5h-92.7c-11.4 0-20.6-9.2-20.6-20.6 0-11.4 9.2-20.6 20.6-20.6h92.7c58.3 0 105.8 47.5 105.8 105.8s-47.5 105.8-105.8 105.8H204.3c-29.2 0-55.6-11.9-74.8-31z m0 0" fill="#2197EF" p-id="8930"></path><path d="M511.9 904.3c-47 0-85.2-38.1-85.2-85.2V204c0-47 38.1-85.2 85.2-85.2 47 0 85.2 38.1 85.2 85.2v615.2c-0.1 47-38.2 85.1-85.2 85.1z m0 0" fill="#CEE8FA" p-id="8931"></path><path d="M437.1 894c-20-20-31-46.5-31-74.8V204c0-58.3 47.5-105.8 105.8-105.8 28.3 0 54.8 11 74.8 31s31 46.5 31 74.8v615.1c0 28.3-11 54.8-31 74.8s-46.5 31-74.8 31c-28.3 0-54.9-11-74.8-30.9z m120.4-735.6c-12.2-12.2-28.4-18.9-45.6-18.9-35.6 0-64.5 29-64.5 64.5v615.2c0 17.2 6.7 33.4 18.9 45.6 12.2 12.2 28.4 18.9 45.6 18.9 17.2 0 33.4-6.7 45.6-18.9 12.2-12.2 18.9-28.4 18.9-45.6V204c0-17.2-6.7-33.4-18.9-45.6z m0 0" fill="#2197EF" p-id="8932"></path></svg>