<?xml version="1.0" standalone="no"?><!DOCTYPE svg PUBLIC "-//W3C//DTD SVG 1.1//EN" "http://www.w3.org/Graphics/SVG/1.1/DTD/svg11.dtd"><svg t="1706693923352" class="icon" viewBox="0 0 1024 1024" version="1.1" xmlns="http://www.w3.org/2000/svg" p-id="17052" xmlns:xlink="http://www.w3.org/1999/xlink" width="200" height="200"><path d="M512 64C264.576 64 64 264.576 64 512s200.576 448 448 448 448-200.576 448-448S759.424 64 512 64z" fill="#94BFFF" p-id="17053"></path><path d="M498.56 519.666a10.668 10.668 0 0 1 0-15.332c21.718-21.126 84.97-82.904 148.374-147.128 14.336-14.516 19.86-35.152 7.744-51.408-4.972-6.654-11.584-14.192-20.352-22.284-11.926-11.014-23.296-18.38-32.768-23.28-15.51-8.02-33.686-3.928-47.766 6.24-110.25 79.572-185.43 165.484-221.802 211.612-15.98 20.29-15.98 47.538 0 67.828 36.372 46.128 111.552 132.04 221.802 211.614 14.08 10.166 32.256 14.256 47.766 6.238 9.472-4.9 20.842-12.266 32.768-23.28 8.768-8.092 15.38-15.63 20.352-22.284 12.116-16.256 6.592-36.892-7.744-51.406-63.404-64.226-126.656-126.004-148.374-147.13z" fill="#1677FF" p-id="17054"></path></svg>