<?xml version="1.0" standalone="no"?><!DOCTYPE svg PUBLIC "-//W3C//DTD SVG 1.1//EN" "http://www.w3.org/Graphics/SVG/1.1/DTD/svg11.dtd"><svg t="1708010055542" class="icon" viewBox="0 0 1024 1024" version="1.1" xmlns="http://www.w3.org/2000/svg" p-id="23134" xmlns:xlink="http://www.w3.org/1999/xlink" width="200" height="200"><path d="M748.001481 787.429841a78.742984 78.742984 0 1 0 0 157.410144 78.742984 78.742984 0 0 0 0-157.448056z m-349.471751-511.810441C250.635468 367.55572 164.840874 374.569419 0 420.518623c28.96468 55.351351 57.171122 114.07686 65.58756 115.934542 8.45435 1.895594 141.525065-52.697519 160.708479-59.256275 3.487893-1.175268 7.885672-2.653832 7.885671-2.502184l-3.980747 4.094483c-11.904332 10.994447-139.364087 118.777934-139.364088 118.777934 40.338245 55.882118 100.466494 127.156461 109.451611 130.341059 19.865827-4.511514 175.911144-109.110404 204.345057-126.625694 6.975787-4.246131 12.624658-7.203258 12.624658-7.089522 0.113736 0.151648-4.284043 6.824139-7.24117 10.729063-24.187782 32.907516-147.932173 189.748982-147.932174 189.748982 72.563347 69.113365 151.950833 135.19378 162.869456 130.606442 10.994447-11.373565 126.777342-168.063384 151.003036-191.872048 9.85709-9.743354 16.036727-15.657608 16.150463-15.543872a355.992595 355.992595 0 0 1-9.629619 22.102628c-26.1592 58.156831-97.547279 212.192817-97.547279 212.192818 30.746538 21.799334 77.491892 49.09589 117.564754 71.42599 41.323954-164.499667 51.71181-249.232729 145.543725-397.923139l-349.509663-350.116254z m391.781414 71.805109L1023.620881 114.26642 909.240726 0 674.831544 234.143799a237.821251 237.821251 0 0 0-241.801999 26.235024l334.269085 330.174602c20.737801-27.903147 93.604443-142.814069 22.974602-243.128916z m36.471233 440.308627c0 21.53395 17.591114 39.049241 39.352536 39.049241 21.761422 0 39.390448-17.515291 39.390448-39.162977v-0.454942c0-21.609774-17.629026-39.125065-39.390448-39.125065-21.761422 0-39.352536 17.477379-39.352536 39.125065v0.568678zM314.971936 275.6194a78.780896 78.780896 0 0 0 0-157.485968 78.780896 78.780896 0 0 0 0 157.485968z" fill="#FF5C5C" p-id="23135"></path></svg>