<?xml version="1.0" standalone="no"?><!DOCTYPE svg PUBLIC "-//W3C//DTD SVG 1.1//EN" "http://www.w3.org/Graphics/SVG/1.1/DTD/svg11.dtd"><svg t="1706789576819" class="icon" viewBox="0 0 1024 1024" version="1.1" xmlns="http://www.w3.org/2000/svg" p-id="7664" xmlns:xlink="http://www.w3.org/1999/xlink" width="200" height="200"><path d="M514.9696 512.6144m-463.104 0a463.104 463.104 0 1 0 926.208 0 463.104 463.104 0 1 0-926.208 0Z" fill="#8C7BFD" p-id="7665"></path><path d="M454.0416 714.6496c-22.2208 0-43.7248-9.2672-58.9824-25.4464l-114.2784-121.1392c-20.8384-22.1184-19.8656-56.9856 2.2528-77.824 22.1184-20.8384 56.9856-19.8656 77.824 2.2528L453.632 590.848l208.5376-228.864c20.48-22.4768 55.296-24.1152 77.7728-3.6352 22.4768 20.48 24.1152 55.296 3.6352 77.7728l-229.632 252.0064a81.2544 81.2544 0 0 1-59.1872 26.4704c-0.256 0.0512-0.4608 0.0512-0.7168 0.0512z" fill="#FFE37B" p-id="7666"></path></svg>