<?xml version="1.0" standalone="no"?><!DOCTYPE svg PUBLIC "-//W3C//DTD SVG 1.1//EN" "http://www.w3.org/Graphics/SVG/1.1/DTD/svg11.dtd"><svg t="1706693965393" class="icon" viewBox="0 0 1024 1024" version="1.1" xmlns="http://www.w3.org/2000/svg" p-id="18990" xmlns:xlink="http://www.w3.org/1999/xlink" width="200" height="200"><path d="M243.4 426.5h212.9v-74.2h110v74.2h212.9c8.7 0 16.4-4.6 20.5-12.3 4.1-7.7 3.7-16.6-1.2-23.9l-81.4-121.6c-4.3-6.5-11.5-10.3-19.3-10.3H324.7c-7.8 0-15 3.9-19.3 10.3L224 390.3c-4.9 7.2-5.3 16.2-1.2 23.9s11.8 12.3 20.6 12.3zM779.2 465.3H566.3v74h-110v-74H243.4c-8.5 0-16.7-1.7-24.2-4.9v290.2c0 8.4 6.9 15.3 15.3 15.3h555.6c8.4 0 15.3-6.8 15.3-15.2l-2.5-290.1c-7.4 3.1-15.4 4.7-23.7 4.7z" fill="#11AAED" p-id="18991"></path><path d="M526.6 0.2H498C221.9 7.7 0.3 234 0.3 512c0 282.8 229.2 512 512 512s512-229.2 512-512C1024.3 234 802.7 7.7 526.6 0.2z m263.5 804.5H234.5c-29.8 0-54.1-24.3-54.1-54.1V406.8h1c-0.8-13.2 2.7-26.6 10.4-38l81.4-121.6c11.5-17.2 30.8-27.5 51.5-27.5h373.1c20.7 0 40 10.3 51.5 27.5l81.4 121.6c7.6 11.4 11.1 24.6 10.4 37.8l3 344.1c0.1 29.7-24.2 54-54 54z" fill="#11AAED" p-id="18992"></path></svg>