<?xml version="1.0" standalone="no"?><!DOCTYPE svg PUBLIC "-//W3C//DTD SVG 1.1//EN" "http://www.w3.org/Graphics/SVG/1.1/DTD/svg11.dtd"><svg t="1706695983489" class="icon" viewBox="0 0 1137 1024" version="1.1" xmlns="http://www.w3.org/2000/svg" p-id="25520" xmlns:xlink="http://www.w3.org/1999/xlink" width="222.0703125" height="200"><path d="M526.222222 43.008L24.405333 918.755556a28.444444 28.444444 0 0 0 24.689778 42.552888h1004.657778a28.444444 28.444444 0 0 0 24.632889-42.609777L575.544889 43.008a28.444444 28.444444 0 0 0-49.322667 0z" fill="#FDD000" p-id="25521"></path><path d="M135.281778 890.424889h837.859555L799.288889 568.888889c-39.879111 19.057778-59.847111 42.609778-59.847111 70.656v63.715555c11.491556 33.564444 6.940444 53.191111-13.824 58.823112-31.061333 8.476444-66.787556-27.648-92.785778 0-17.408 18.432-33.336889 46.023111-47.900444 82.716444H154.282667l-19.000889 45.624889z" fill="#000000" p-id="25522"></path><path d="M747.349333 710.940444c-1.024-15.018667-6.997333-25.6-17.976889-31.630222a1511.537778 1511.537778 0 0 0-38.456888-20.309333l-11.377778 15.246222-68.608-29.354667c5.461333-1.479111 8.248889-5.233778 8.248889-11.207111 0-5.973333-2.787556-12.8-8.248889-20.48a1353.784889 1353.784889 0 0 1-20.764445-51.655111c-3.527111-9.671111-6.542222-28.728889-9.102222-57.287111-13.084444-19.399111-26.112-31.971556-39.025778-37.603555-12.970667-5.688889-30.833778-9.500444-53.646222-11.548445-27.534222 9.386667-44.771556 15.758222-51.655111 19.171556s-15.587556 9.102222-26.055111 17.123555c-7.68 2.275556-11.491556 6.599111-11.491556 12.856889s2.275556 13.368889 6.769778 21.276445l30.72 48.355555-94.72 210.318222c-2.218667 18.488889 1.365333 29.582222 10.808889 33.450667 9.443556 3.811556 19.626667 0.398222 30.663111-10.296889L459.377778 637.155556c8.362667 4.380444 16.156444 11.662222 23.324444 21.845333 7.281778 10.183111 14.449778 20.024889 21.617778 29.582222l-6.712889 118.784c9.955556 10.410667 17.066667 15.644444 21.276445 15.644445 4.266667 0 12.743111-5.233778 25.429333-15.644445l10.24-111.559111c1.706667-12.288 0.455111-21.447111-3.811556-27.591111-4.266667-6.144-16.497778-21.447111-36.636444-45.852445l4.778667-9.102222 153.372444 75.320889-4.152889 22.357333c21.617778 10.410667 37.262222 15.587556 46.876445 15.587556 9.557333 0 20.366222-5.176889 32.369777-15.587556z" fill="#000000" p-id="25523"></path><path d="M475.022222 501.418667l-29.866666 8.078222 9.955555 27.989333zM555.349333 550.343111l21.674667 76.060445-50.346667-26.168889zM568.32 459.491556a47.388444 47.388444 0 1 0 0-94.833778 47.388444 47.388444 0 0 0 0 94.833778z" fill="#000000" p-id="25524"></path></svg>