<?xml version="1.0" standalone="no"?><!DOCTYPE svg PUBLIC "-//W3C//DTD SVG 1.1//EN" "http://www.w3.org/Graphics/SVG/1.1/DTD/svg11.dtd"><svg t="1705126040996" class="icon" viewBox="0 0 1024 1024" version="1.1" xmlns="http://www.w3.org/2000/svg" p-id="4491" xmlns:xlink="http://www.w3.org/1999/xlink" width="200" height="200"><path d="M853.546667 255.786667h-42.666667v85.333333h42.666667v341.333333h-42.666667v85.333334h42.666667c47.061333 0 85.333333-38.272 85.333333-85.333334v-341.333333c0-47.018667-38.314667-85.333333-85.333333-85.333333z m-597.333334 170.666666H640v170.666667H256.213333z" p-id="4492"></path><path d="M725.546667 767.786667V170.666667H853.333333V85.333333h-341.333333v85.333334h128.213333v85.12h-469.333333c-47.061333 0-85.333333 38.272-85.333333 85.333333v341.333333c0 47.061333 38.272 85.333333 85.333333 85.333334h469.333333V853.333333H512v85.333334h341.333333v-85.333334h-127.786666v-85.546666z m-554.666667-85.333334v-341.333333h469.333333v341.333333h-469.333333z" p-id="4493"></path></svg>