<?xml version="1.0" standalone="no"?><!DOCTYPE svg PUBLIC "-//W3C//DTD SVG 1.1//EN" "http://www.w3.org/Graphics/SVG/1.1/DTD/svg11.dtd"><svg t="1693041037679" class="icon" viewBox="0 0 1024 1024" version="1.1" xmlns="http://www.w3.org/2000/svg" p-id="10019" xmlns:xlink="http://www.w3.org/1999/xlink" width="200" height="200"><path d="M222.795294 540.363453c2.465998 4.338996 4.376996 8.971991 7.989991 12.755987 0.680999 0.681999 1.401999 1.148999 2.082998 1.788998 0.893999 0.934999 1.230999 2.165998 2.126998 3.054997l465.017529 448.186547c12.371987 11.900988 28.315971 17.849982 44.251955 17.849982 16.708983 0 33.412966-6.499994 45.911954-19.511981 24.440975-25.373974 23.675976-65.716934-1.659998-90.163909l-419.399575-404.22659L790.17472 111.779887c25.587974-24.232975 26.697973-64.572935 2.509998-90.161909-24.231975-25.550974-64.571935-26.700973-90.160909-2.510998L233.249283 462.951532c-20.697979 19.55798-24.524975 49.30895-12.836987 73.628925C221.010296 537.942456 222.111295 539.044455 222.795294 540.363453L222.795294 540.363453z" fill="#272636" p-id="10020"></path></svg>