<?xml version="1.0" standalone="no"?><!DOCTYPE svg PUBLIC "-//W3C//DTD SVG 1.1//EN" "http://www.w3.org/Graphics/SVG/1.1/DTD/svg11.dtd"><svg t="1693585001971" class="icon" viewBox="0 0 1024 1024" version="1.1" xmlns="http://www.w3.org/2000/svg" p-id="4013" xmlns:xlink="http://www.w3.org/1999/xlink" width="200" height="200"><path d="M125.866667 704H64c-23.466667 0-42.666667 19.2-42.666667 42.666667s19.2 42.666667 42.666667 42.666666h61.866667c128 0 245.333333-68.266667 311.466666-174.933333 66.133333 106.666667 183.466667 174.933333 311.466667 174.933333H789.333333v46.933334c0 29.866667 29.866667 49.066667 53.333334 34.133333l140.8-89.6c23.466667-14.933333 23.466667-51.2 0-66.133333l-140.8-89.6c-23.466667-14.933333-53.333333 4.266667-53.333334 34.133333V704h-40.533333c-121.6 0-228.266667-78.933333-266.666667-192 38.4-113.066667 147.2-192 266.666667-192H789.333333v46.933333c0 29.866667 29.866667 49.066667 53.333334 34.133334l140.8-89.6c23.466667-14.933333 23.466667-51.2 0-66.133334l-140.8-89.6c-23.466667-17.066667-53.333333 2.133333-53.333334 32V234.666667h-40.533333c-128 0-245.333333 68.266667-311.466667 174.933333-66.133333-106.666667-183.466667-174.933333-311.466666-174.933333H64c-23.466667 0-42.666667 19.2-42.666667 42.666666s19.2 42.666667 42.666667 42.666667h61.866667c121.6 0 228.266667 78.933333 266.666666 192-38.4 113.066667-147.2 192-266.666666 192" fill="#2F3CF4" p-id="4014"></path></svg>