<?xml version="1.0" standalone="no"?><!DOCTYPE svg PUBLIC "-//W3C//DTD SVG 1.1//EN" "http://www.w3.org/Graphics/SVG/1.1/DTD/svg11.dtd"><svg t="1693042064629" class="icon" viewBox="0 0 1024 1024" version="1.1" xmlns="http://www.w3.org/2000/svg" p-id="10999" xmlns:xlink="http://www.w3.org/1999/xlink" width="200" height="200"><path d="M801.204992 540.36399c0.684-1.319 1.785-2.421 2.383-3.783 11.688-24.32 7.861-54.071-12.837-73.628998L321.477 19.107c-25.588-24.19-65.928998-23.041-90.161998 2.511-24.188 25.589-23.078 65.928998 2.511 90.161998l421.057992 398.317994-419.399992 404.226994c-25.337 24.447-26.102 64.789998-1.66 90.163998C246.322 1017.499982 263.027 1023.999982 279.736 1023.999982c15.936 0 31.879-5.948 44.251-17.85l465.017992-448.186992c0.896-0.889 1.233-2.12 2.127-3.055 0.681-0.64 1.402-1.107 2.083-1.789C796.827992 549.33599 798.738992 544.70299 801.204992 540.36399L801.204992 540.36399z" fill="#272636" p-id="11000"></path></svg>