<?xml version="1.0" standalone="no"?><!DOCTYPE svg PUBLIC "-//W3C//DTD SVG 1.1//EN" "http://www.w3.org/Graphics/SVG/1.1/DTD/svg11.dtd"><svg t="1691318879996" class="icon" viewBox="0 0 1024 1024" version="1.1" xmlns="http://www.w3.org/2000/svg" p-id="7370" xmlns:xlink="http://www.w3.org/1999/xlink" width="200" height="200"><path d="M800.814 181.927h-75.639c-6.878 0-6.878 6.878-6.878 6.878v185.666s0 13.75-13.75 13.75H319.464s-13.75 0-13.75-13.75V236.936s0-13.75 13.75-13.75h13.75c13.75 0 13.75 13.75 13.75 13.75v103.148s0 6.878 6.872 6.878h316.323c6.878 0 6.878-6.878 6.878-6.878V188.805s0-6.878-6.878-6.878H298.827c-41.259 0-48.151 13.764-48.151 13.764l-54.997 55.003s-13.75 6.872-13.75 41.259v508.86c0 20.63 20.63 41.259 41.259 41.259h577.628c20.63 0 41.259-20.63 41.259-41.259V223.186c0-20.628-20.632-41.259-41.26-41.259z m-41.26 605.136c0 13.75-13.75 13.75-13.757 13.75H278.196s-13.75 0-13.75-13.75V564.435c0-10.317 5.73-16.907 5.73-16.907l27.792-27.792S305.704 512 317.739 512h386.806c13.268 0 20.63 6.878 20.63 6.878l27.502 27.508s6.878 5.301 6.878 20.63v220.047z m-48.137-68.767H312.583c-7.566 0-13.75 6.192-13.75 13.75v13.75c0 7.566 6.186 13.75 13.75 13.75h398.841c7.566 0 13.757-6.192 13.757-13.75v-13.75h-0.007c0-7.566-6.192-13.75-13.757-13.75z m0-82.519H312.583c-7.566 0-13.75 6.192-13.75 13.75v13.75c0 7.566 6.186 13.75 13.75 13.75h398.841c7.566 0 13.757-6.192 13.757-13.75v-13.75h-0.007c0-7.566-6.192-13.75-13.757-13.75z m0-82.518H312.583c-7.566 0-13.75 6.192-13.75 13.75v13.75c0 7.566 6.186 13.75 13.75 13.75h398.841c7.566 0 13.757-6.192 13.757-13.75v-13.75h-0.007c0-7.566-6.192-13.75-13.757-13.75z" fill="#333333" p-id="7371"></path></svg>